# xmcd
#
# Track frame offsets:
#	150
#	16403
#	33643
#	52284
#	70796
#	86444
#	104821
#	123999
#	142325
#	159281
#	178004
#	191898
#
# Disc length: 2762 seconds
#
# Revision: 1
# Processed by: cddbd v1.5.2PL0 Copyright (c) Steve Scherf et al.
# Submitted via: EasyCDDAExtractor 12.0.1.1
#
DISCID=b30ac80c
DTITLE=Lloyd - Lessons In Love
DYEAR=2008
DGENRE=R&B
TTITLE0=Sex Education
TTITLE1=Girls Around The World
TTITLE2=Treat U Good
TTITLE3=Year Of The Lover
TTITLE4=I Can Change Your Life
TTITLE5=Lose Your Love
TTITLE6=Have My Baby
TTITLE7=Have My Baby
TTITLE8=Party All Over Your Body
TTITLE9=Touched By An Angel
TTITLE10=I'm Wit It
TTITLE11=Heart Attack
EXTD=
EXTT0=
EXTT1=
EXTT2=
EXTT3=
EXTT4=
EXTT5=
EXTT6=
EXTT7=
EXTT8=
EXTT9=
EXTT10=
EXTT11=
PLAYORDER=
